# 
# Generated by Sweet Home 3D - Mi. Jan. 22 19:26:48 MEZ 2020
# http://www.sweethome3d.com/
# 
mtllib anhaenger_bettgestell_teil4.mtl
g ground_1
usemtl ground_1
v -2.5 0.0 -2.5
v -2.5 0.0 2.5
v 222.5 0.0 2.5
v 222.5 0.0 -2.5
vn 0.0 1.0 0.0
vn 0.0 0.0 0.0
f 1//1 2//1 3//1
f 1//1 3//1 4//1
g bottom_2
usemtl bottom
v 5.0 0.0 -2.5
v 10.0 0.0 -2.5
v 10.0 0.0 2.5
v 5.0 0.0 2.5
vt 0.0 0.1858736 0
vt 0.1858736 0.1858736 0
vt 0.1858736 0.0 0
vt 0.0 0.0 0
vn 0.0 -1.0 0.0
f 5/1/3 6/2/3 7/3/3
f 5/1/3 7/3/3 8/4/3
g top_3
usemtl top
v 5.0 45.0 -2.5
v 5.0 45.0 2.5
v 10.0 45.0 2.5
v 10.0 45.0 -2.5
vt 0.0 1.858736 0
vt 0.0 1.6728624 0
vt 0.1858736 1.6728624 0
vt 0.1858736 1.858736 0
f 9/5/1 10/6/1 11/7/1
f 9/5/1 11/7/1 12/8/1
g left_4
usemtl left
vn -1.0 0.0 0.0
f 5/1/4 8/4/4 10/6/4
f 5/1/4 10/6/4 9/5/4
g right_5
usemtl right
vn 1.0 0.0 0.0
f 6/2/5 12/8/5 11/7/5
f 6/2/5 11/7/5 7/3/5
g back_6
usemtl back
vn 0.0 0.0 -1.0
f 5/1/6 9/5/6 12/8/6
f 5/1/6 12/8/6 6/2/6
g front_7
usemtl front
vn 0.0 0.0 1.0
f 7/3/7 11/7/7 10/6/7
f 7/3/7 10/6/7 8/4/7
g bottom_8
usemtl bottom
v 210.0 0.0 -2.5
v 215.0 0.0 -2.5
v 215.0 0.0 2.5
v 210.0 0.0 2.5
f 13/1/3 14/2/3 15/3/3
f 13/1/3 15/3/3 16/4/3
g top_9
usemtl top
v 210.0 45.0 -2.5
v 210.0 45.0 2.5
v 215.0 45.0 2.5
v 215.0 45.0 -2.5
f 17/5/1 18/6/1 19/7/1
f 17/5/1 19/7/1 20/8/1
g left_10
usemtl left
f 13/1/4 16/4/4 18/6/4
f 13/1/4 18/6/4 17/5/4
g right_11
usemtl right
f 14/2/5 20/8/5 19/7/5
f 14/2/5 19/7/5 15/3/5
g back_12
usemtl back
f 13/1/6 17/5/6 20/8/6
f 13/1/6 20/8/6 14/2/6
g front_13
usemtl front
f 15/3/7 19/7/7 18/6/7
f 15/3/7 18/6/7 16/4/7
g bottom_14
usemtl bottom
v 107.5 0.0 -2.5
v 112.5 0.0 -2.5
v 112.5 0.0 2.5
v 107.5 0.0 2.5
f 21/1/3 22/2/3 23/3/3
f 21/1/3 23/3/3 24/4/3
g top_15
usemtl top
v 107.5 45.0 -2.5
v 107.5 45.0 2.5
v 112.5 45.0 2.5
v 112.5 45.0 -2.5
f 25/5/1 26/6/1 27/7/1
f 25/5/1 27/7/1 28/8/1
g left_16
usemtl left
f 21/1/4 24/4/4 26/6/4
f 21/1/4 26/6/4 25/5/4
g right_17
usemtl right
f 22/2/5 28/8/5 27/7/5
f 22/2/5 27/7/5 23/3/5
g back_18
usemtl back
f 21/1/6 25/5/6 28/8/6
f 21/1/6 28/8/6 22/2/6
g front_19
usemtl front
f 23/3/7 27/7/7 26/6/7
f 23/3/7 26/6/7 24/4/7
g Cylinder_20
usemtl top_Cylinder_20
v 17.5 42.402454 -0.49039298
v 17.5 42.5 -0.5
v 17.5 42.5 0.0
v 17.5 42.59754 -0.49039298
v 17.5 42.69134 -0.46194
v 17.5 42.777786 -0.415735
v 17.5 42.853554 -0.353554
v 17.5 42.915733 -0.27778602
v 17.5 42.96194 -0.191342
v 17.5 42.99039 -0.09754598
v 17.5 43.0 0.0
v 17.5 42.99039 0.097545
v 17.5 42.96194 0.19134101
v 17.5 42.915733 0.277785
v 17.5 42.853554 0.353553
v 17.5 42.777786 0.415735
v 17.5 42.69134 0.46194
v 17.5 42.597546 0.490393
v 17.5 42.5 0.5
v 17.5 42.402454 0.490393
v 17.5 42.30866 0.46194
v 17.5 42.222214 0.415735
v 17.5 42.146446 0.353553
v 17.5 42.084263 0.277785
v 17.5 42.03806 0.191342
v 17.5 42.009605 0.097545
v 17.5 42.0 0.0
v 17.5 42.009605 -0.09754503
v 17.5 42.03806 -0.191342
v 17.5 42.084263 -0.277785
v 17.5 42.146446 -0.353553
v 17.5 42.222214 -0.415735
v 17.5 42.30866 -0.46194
vt 0.645815 0.980689 0
vt 0.549235 0.9999 0
vt 0.5 0.5 0
vt 0.450764 0.9999 0
vt 0.354185 0.980689 0
vt 0.263209 0.943006 0
vt 0.181332 0.888298 0
vt 0.111702 0.818668 0
vt 0.056994 0.736791 0
vt 0.019311 0.645815 0
vt 0.0001 0.549236 0
vt 0.0001 0.450764 0
vt 0.019311 0.354184 0
vt 0.056994 0.263208 0
vt 0.111703 0.181332 0
vt 0.181333 0.111702 0
vt 0.263209 0.056994 0
vt 0.354185 0.019311 0
vt 0.450765 0.0001 0
vt 0.549236 0.0001 0
vt 0.645816 0.019311 0
vt 0.736792 0.056995 0
vt 0.818668 0.111703 0
vt 0.888298 0.181333 0
vt 0.943006 0.263209 0
vt 0.980689 0.354185 0
vt 0.9999 0.450765 0
vt 0.9999 0.549237 0
vt 0.980689 0.645816 0
vt 0.943005 0.736792 0
vt 0.888297 0.818668 0
vt 0.818667 0.888298 0
vt 0.736791 0.943006 0
vn 1.0 -0 0.0
f 29/9/8 30/10/8 31/11/8
f 30/10/8 32/12/8 31/11/8
f 32/12/8 33/13/8 31/11/8
f 33/13/8 34/14/8 31/11/8
f 34/14/8 35/15/8 31/11/8
f 35/15/8 36/16/8 31/11/8
f 36/16/8 37/17/8 31/11/8
f 37/17/8 38/18/8 31/11/8
f 38/18/8 39/19/8 31/11/8
f 39/19/8 40/20/8 31/11/8
f 40/20/8 41/21/8 31/11/8
f 41/21/8 42/22/8 31/11/8
f 42/22/8 43/23/8 31/11/8
f 43/23/8 44/24/8 31/11/8
f 44/24/8 45/25/8 31/11/8
f 45/25/8 46/26/8 31/11/8
f 46/26/8 47/27/8 31/11/8
f 47/27/8 48/28/8 31/11/8
f 48/28/8 49/29/8 31/11/8
f 49/29/8 50/30/8 31/11/8
f 50/30/8 51/31/8 31/11/8
f 51/31/8 52/32/8 31/11/8
f 52/32/8 53/33/8 31/11/8
f 53/33/8 54/34/8 31/11/8
f 54/34/8 55/35/8 31/11/8
f 55/35/8 56/36/8 31/11/8
f 56/36/8 57/37/8 31/11/8
f 57/37/8 58/38/8 31/11/8
f 58/38/8 59/39/8 31/11/8
f 59/39/8 60/40/8 31/11/8
f 60/40/8 61/41/8 31/11/8
f 61/41/8 29/9/8 31/11/8
g Cylinder_32_21
usemtl cylinder
v -2.5 42.402454 -0.49039298
v -2.5 42.30866 -0.46194
v -2.5 42.222214 -0.415735
v -2.5 42.146446 -0.353553
v -2.5 42.084267 -0.277785
v -2.5 42.03806 -0.191342
v -2.5 42.00961 -0.09754503
v -2.5 42.0 0.0
v -2.5 42.00961 0.097545
v -2.5 42.03806 0.191342
v -2.5 42.084267 0.277785
v -2.5 42.146446 0.353553
v -2.5 42.222214 0.415735
v -2.5 42.30866 0.46194
v -2.5 42.402454 0.490393
v -2.5 42.5 0.5
v -2.5 42.597546 0.490393
v -2.5 42.69134 0.46194
v -2.5 42.777786 0.415735
v -2.5 42.853554 0.353553
v -2.5 42.915737 0.277785
v -2.5 42.96194 0.19134101
v -2.5 42.990395 0.097545
v -2.5 43.0 0.0
v -2.5 42.990395 -0.09754598
v -2.5 42.96194 -0.191342
v -2.5 42.915733 -0.27778602
v -2.5 42.853554 -0.353554
v -2.5 42.777786 -0.415735
v -2.5 42.69134 -0.46194
v -2.5 42.5 -0.5
v -2.5 42.597546 -0.49039298
vt 0.71875 1.0 0
vt 0.6875 1.0 0
vt 0.6875 0.0 0
vt 0.65625 1.0 0
vt 0.65625 0.0 0
vt 0.625 1.0 0
vt 0.625 0.0 0
vt 0.59375 1.0 0
vt 0.59375 0.0 0
vt 0.5625 1.0 0
vt 0.5625 0.0 0
vt 0.53125 1.0 0
vt 0.53125 0.0 0
vt 0.5 1.0 0
vt 0.5 0.0 0
vt 0.46875 1.0 0
vt 0.46875 0.0 0
vt 0.4375 1.0 0
vt 0.4375 0.0 0
vt 0.40625 1.0 0
vt 0.40625 0.0 0
vt 0.375 1.0 0
vt 0.375 0.0 0
vt 0.34375 1.0 0
vt 0.34375 0.0 0
vt 0.3125 1.0 0
vt 0.3125 0.0 0
vt 0.28125 1.0 0
vt 0.28125 0.0 0
vt 0.25 1.0 0
vt 0.25 0.0 0
vt 0.21875 1.0 0
vt 0.21875 0.0 0
vt 0.1875 1.0 0
vt 0.1875 0.0 0
vt 0.15625 1.0 0
vt 0.15625 0.0 0
vt 0.125 1.0 0
vt 0.125 0.0 0
vt 0.09375 1.0 0
vt 0.09375 0.0 0
vt 0.0625 1.0 0
vt 0.0625 0.0 0
vt 0.03125 1.0 0
vt 0.03125 0.0 0
vt 0.0 1.0 0
vt 1.0 1.0 0
vt 0.96875 1.0 0
vt 0.96875 0.0 0
vt 0.9375 1.0 0
vt 0.9375 0.0 0
vt 0.90625 1.0 0
vt 0.90625 0.0 0
vt 0.875 1.0 0
vt 0.875 0.0 0
vt 0.84375 1.0 0
vt 0.84375 0.0 0
vt 0.8125 1.0 0
vt 0.8125 0.0 0
vt 0.78125 1.0 0
vt 0.78125 0.0 0
vt 0.75 1.0 0
vt 0.71875 0.0 0
vt 0.75 0.0 0
vt 1.0 0.0 0
vn 0 0.0000005 -1.0
vn -0 -0.19508865 -0.9807856
vn -0 -0.3826844 -0.9238792
vn -0 -0.5555738 -0.83146733
vn -0 -0.70710677 -0.70710677
vn -0 -0.83146733 -0.5555738
vn -0 -0.9238792 -0.3826844
vn -0 -0.9807856 -0.19508865
vn -0 -1.0 0
vn -0 -0.9807856 0.19508861
vn -0 -0.9238792 0.38268438
vn -0 -0.83146733 0.5555738
vn -0 -0.70710677 0.70710677
vn -0 -0.5555739 0.8314672
vn -0 -0.3826845 0.9238791
vn -0 -0.19508857 0.9807856
vn 0 0 1.0
vn 0 0.19508855 0.9807856
vn 0 0.38268444 0.9238791
vn 0 0.5555712 0.831469
vn 0 0.7071073 0.7071063
vn 0 0.8314707 0.55556864
vn 0 0.92387944 0.38268358
vn 0 0.9807854 0.19509001
vn 0 1.0 0.0000005
vn 0 0.9807854 -0.19508949
vn 0 0.9238778 -0.3826877
vn 0 0.8314682 -0.5555723
vn 0 0.70710677 -0.7071068
vn 0 0.5555686 -0.83147085
vn 0 0.38268214 -0.9238801
vn 0 0.1950891 -0.98078555
f 30/42/9 29/43/10 62/44/10
f 29/43/10 61/45/11 63/46/11
f 61/45/11 60/47/12 64/48/12
f 60/47/12 59/49/13 65/50/13
f 59/49/13 58/51/14 66/52/14
f 58/51/14 57/53/15 67/54/15
f 57/53/15 56/55/16 68/56/16
f 56/55/16 55/57/17 69/58/17
f 55/57/17 54/59/18 70/60/18
f 54/59/18 53/61/19 71/62/19
f 53/61/19 52/63/20 72/64/20
f 52/63/20 51/65/21 73/66/21
f 51/65/21 50/67/22 74/68/22
f 50/67/22 49/69/23 75/70/23
f 49/69/23 48/71/24 76/72/24
f 48/71/24 47/73/25 77/74/25
f 47/73/25 46/75/26 78/76/26
f 46/75/26 45/77/27 79/78/27
f 45/77/27 44/79/28 80/80/28
f 44/79/28 43/81/29 81/82/29
f 43/81/29 42/83/30 82/84/30
f 42/83/30 41/85/31 83/86/31
f 41/85/31 40/87/32 84/4/32
f 40/88/32 39/89/33 85/90/33
f 39/89/33 38/91/34 86/92/34
f 38/91/34 37/93/35 87/94/35
f 37/93/35 36/95/36 88/96/36
f 36/95/36 35/97/37 89/98/37
f 35/97/37 34/99/38 90/100/38
f 34/99/38 33/101/39 91/102/39
f 32/103/40 30/42/9 92/104/9
f 33/101/39 32/103/40 93/105/40
f 92/104/9 30/42/9 62/44/10
f 62/44/10 29/43/10 63/46/11
f 63/46/11 61/45/11 64/48/12
f 64/48/12 60/47/12 65/50/13
f 65/50/13 59/49/13 66/52/14
f 66/52/14 58/51/14 67/54/15
f 67/54/15 57/53/15 68/56/16
f 68/56/16 56/55/16 69/58/17
f 69/58/17 55/57/17 70/60/18
f 70/60/18 54/59/18 71/62/19
f 71/62/19 53/61/19 72/64/20
f 72/64/20 52/63/20 73/66/21
f 73/66/21 51/65/21 74/68/22
f 74/68/22 50/67/22 75/70/23
f 75/70/23 49/69/23 76/72/24
f 76/72/24 48/71/24 77/74/25
f 77/74/25 47/73/25 78/76/26
f 78/76/26 46/75/26 79/78/27
f 79/78/27 45/77/27 80/80/28
f 80/80/28 44/79/28 81/82/29
f 81/82/29 43/81/29 82/84/30
f 82/84/30 42/83/30 83/86/31
f 83/86/31 41/85/31 84/4/32
f 84/106/32 40/88/32 85/90/33
f 85/90/33 39/89/33 86/92/34
f 86/92/34 38/91/34 87/94/35
f 87/94/35 37/93/35 88/96/36
f 88/96/36 36/95/36 89/98/37
f 89/98/37 35/97/37 90/100/38
f 90/100/38 34/99/38 91/102/39
f 93/105/40 32/103/40 92/104/9
f 91/102/39 33/101/39 93/105/40
g Cylinder_96_22
usemtl bottom_Cylinder_96_22
v -2.5 42.5 0.0
vn -1.0 0 0.0
f 92/26/41 62/27/41 94/11/41
f 62/27/41 63/28/41 94/11/41
f 63/28/41 64/29/41 94/11/41
f 64/29/41 65/30/41 94/11/41
f 65/30/41 66/31/41 94/11/41
f 66/31/41 67/32/41 94/11/41
f 67/32/41 68/33/41 94/11/41
f 68/33/41 69/34/41 94/11/41
f 69/34/41 70/35/41 94/11/41
f 70/35/41 71/36/41 94/11/41
f 71/36/41 72/37/41 94/11/41
f 72/37/41 73/38/41 94/11/41
f 73/38/41 74/39/41 94/11/41
f 74/39/41 75/40/41 94/11/41
f 75/40/41 76/41/41 94/11/41
f 76/41/41 77/9/41 94/11/41
f 77/9/41 78/10/41 94/11/41
f 78/10/41 79/12/41 94/11/41
f 79/12/41 80/13/41 94/11/41
f 80/13/41 81/14/41 94/11/41
f 81/14/41 82/15/41 94/11/41
f 82/15/41 83/16/41 94/11/41
f 83/16/41 84/17/41 94/11/41
f 84/17/41 85/18/41 94/11/41
f 85/18/41 86/19/41 94/11/41
f 86/19/41 87/20/41 94/11/41
f 87/20/41 88/21/41 94/11/41
f 88/21/41 89/22/41 94/11/41
f 89/22/41 90/23/41 94/11/41
f 90/23/41 91/24/41 94/11/41
f 91/24/41 93/25/41 94/11/41
f 93/25/41 92/26/41 94/11/41
g Cylinder_23
usemtl top_Cylinder_20
v 222.5 42.402454 -0.49039298
v 222.5 42.5 -0.5
v 222.5 42.5 0.0
v 222.5 42.59754 -0.49039298
v 222.5 42.69134 -0.46194
v 222.5 42.777786 -0.415735
v 222.5 42.853554 -0.353554
v 222.5 42.915733 -0.27778602
v 222.5 42.96194 -0.191342
v 222.5 42.99039 -0.09754598
v 222.5 43.0 0.0
v 222.5 42.99039 0.097545
v 222.5 42.96194 0.19134101
v 222.5 42.915733 0.277785
v 222.5 42.853554 0.353553
v 222.5 42.777786 0.415735
v 222.5 42.69134 0.46194
v 222.5 42.597546 0.490393
v 222.5 42.5 0.5
v 222.5 42.402454 0.490393
v 222.5 42.30866 0.46194
v 222.5 42.222214 0.415735
v 222.5 42.146446 0.353553
v 222.5 42.084263 0.277785
v 222.5 42.03806 0.191342
v 222.5 42.009605 0.097545
v 222.5 42.0 0.0
v 222.5 42.009605 -0.09754503
v 222.5 42.03806 -0.191342
v 222.5 42.084263 -0.277785
v 222.5 42.146446 -0.353553
v 222.5 42.222214 -0.415735
v 222.5 42.30866 -0.46194
f 95/9/8 96/10/8 97/11/8
f 96/10/8 98/12/8 97/11/8
f 98/12/8 99/13/8 97/11/8
f 99/13/8 100/14/8 97/11/8
f 100/14/8 101/15/8 97/11/8
f 101/15/8 102/16/8 97/11/8
f 102/16/8 103/17/8 97/11/8
f 103/17/8 104/18/8 97/11/8
f 104/18/8 105/19/8 97/11/8
f 105/19/8 106/20/8 97/11/8
f 106/20/8 107/21/8 97/11/8
f 107/21/8 108/22/8 97/11/8
f 108/22/8 109/23/8 97/11/8
f 109/23/8 110/24/8 97/11/8
f 110/24/8 111/25/8 97/11/8
f 111/25/8 112/26/8 97/11/8
f 112/26/8 113/27/8 97/11/8
f 113/27/8 114/28/8 97/11/8
f 114/28/8 115/29/8 97/11/8
f 115/29/8 116/30/8 97/11/8
f 116/30/8 117/31/8 97/11/8
f 117/31/8 118/32/8 97/11/8
f 118/32/8 119/33/8 97/11/8
f 119/33/8 120/34/8 97/11/8
f 120/34/8 121/35/8 97/11/8
f 121/35/8 122/36/8 97/11/8
f 122/36/8 123/37/8 97/11/8
f 123/37/8 124/38/8 97/11/8
f 124/38/8 125/39/8 97/11/8
f 125/39/8 126/40/8 97/11/8
f 126/40/8 127/41/8 97/11/8
f 127/41/8 95/9/8 97/11/8
g Cylinder_32_24
usemtl cylinder
v 202.5 42.402454 -0.49039298
v 202.5 42.30866 -0.46194
v 202.5 42.222214 -0.415735
v 202.5 42.146446 -0.353553
v 202.5 42.084267 -0.277785
v 202.5 42.03806 -0.191342
v 202.5 42.00961 -0.09754503
v 202.5 42.0 0.0
v 202.5 42.00961 0.097545
v 202.5 42.03806 0.191342
v 202.5 42.084267 0.277785
v 202.5 42.146446 0.353553
v 202.5 42.222214 0.415735
v 202.5 42.30866 0.46194
v 202.5 42.402454 0.490393
v 202.5 42.5 0.5
v 202.5 42.597546 0.490393
v 202.5 42.69134 0.46194
v 202.5 42.777786 0.415735
v 202.5 42.853554 0.353553
v 202.5 42.915737 0.277785
v 202.5 42.96194 0.19134101
v 202.5 42.990395 0.097545
v 202.5 43.0 0.0
v 202.5 42.990395 -0.09754598
v 202.5 42.96194 -0.191342
v 202.5 42.915733 -0.27778602
v 202.5 42.853554 -0.353554
v 202.5 42.777786 -0.415735
v 202.5 42.69134 -0.46194
v 202.5 42.5 -0.5
v 202.5 42.597546 -0.49039298
f 96/42/9 95/43/10 128/44/10
f 95/43/10 127/45/11 129/46/11
f 127/45/11 126/47/12 130/48/12
f 126/47/12 125/49/13 131/50/13
f 125/49/13 124/51/14 132/52/14
f 124/51/14 123/53/15 133/54/15
f 123/53/15 122/55/16 134/56/16
f 122/55/16 121/57/17 135/58/17
f 121/57/17 120/59/18 136/60/18
f 120/59/18 119/61/19 137/62/19
f 119/61/19 118/63/20 138/64/20
f 118/63/20 117/65/21 139/66/21
f 117/65/21 116/67/22 140/68/22
f 116/67/22 115/69/23 141/70/23
f 115/69/23 114/71/24 142/72/24
f 114/71/24 113/73/25 143/74/25
f 113/73/25 112/75/26 144/76/26
f 112/75/26 111/77/27 145/78/27
f 111/77/27 110/79/28 146/80/28
f 110/79/28 109/81/29 147/82/29
f 109/81/29 108/83/30 148/84/30
f 108/83/30 107/85/31 149/86/31
f 107/85/31 106/87/32 150/4/32
f 106/88/32 105/89/33 151/90/33
f 105/89/33 104/91/34 152/92/34
f 104/91/34 103/93/35 153/94/35
f 103/93/35 102/95/36 154/96/36
f 102/95/36 101/97/37 155/98/37
f 101/97/37 100/99/38 156/100/38
f 100/99/38 99/101/39 157/102/39
f 98/103/40 96/42/9 158/104/9
f 99/101/39 98/103/40 159/105/40
f 158/104/9 96/42/9 128/44/10
f 128/44/10 95/43/10 129/46/11
f 129/46/11 127/45/11 130/48/12
f 130/48/12 126/47/12 131/50/13
f 131/50/13 125/49/13 132/52/14
f 132/52/14 124/51/14 133/54/15
f 133/54/15 123/53/15 134/56/16
f 134/56/16 122/55/16 135/58/17
f 135/58/17 121/57/17 136/60/18
f 136/60/18 120/59/18 137/62/19
f 137/62/19 119/61/19 138/64/20
f 138/64/20 118/63/20 139/66/21
f 139/66/21 117/65/21 140/68/22
f 140/68/22 116/67/22 141/70/23
f 141/70/23 115/69/23 142/72/24
f 142/72/24 114/71/24 143/74/25
f 143/74/25 113/73/25 144/76/26
f 144/76/26 112/75/26 145/78/27
f 145/78/27 111/77/27 146/80/28
f 146/80/28 110/79/28 147/82/29
f 147/82/29 109/81/29 148/84/30
f 148/84/30 108/83/30 149/86/31
f 149/86/31 107/85/31 150/4/32
f 150/106/32 106/88/32 151/90/33
f 151/90/33 105/89/33 152/92/34
f 152/92/34 104/91/34 153/94/35
f 153/94/35 103/93/35 154/96/36
f 154/96/36 102/95/36 155/98/37
f 155/98/37 101/97/37 156/100/38
f 156/100/38 100/99/38 157/102/39
f 159/105/40 98/103/40 158/104/9
f 157/102/39 99/101/39 159/105/40
g Cylinder_96_25
usemtl bottom_Cylinder_96_22
v 202.5 42.5 0.0
f 158/26/41 128/27/41 160/11/41
f 128/27/41 129/28/41 160/11/41
f 129/28/41 130/29/41 160/11/41
f 130/29/41 131/30/41 160/11/41
f 131/30/41 132/31/41 160/11/41
f 132/31/41 133/32/41 160/11/41
f 133/32/41 134/33/41 160/11/41
f 134/33/41 135/34/41 160/11/41
f 135/34/41 136/35/41 160/11/41
f 136/35/41 137/36/41 160/11/41
f 137/36/41 138/37/41 160/11/41
f 138/37/41 139/38/41 160/11/41
f 139/38/41 140/39/41 160/11/41
f 140/39/41 141/40/41 160/11/41
f 141/40/41 142/41/41 160/11/41
f 142/41/41 143/9/41 160/11/41
f 143/9/41 144/10/41 160/11/41
f 144/10/41 145/12/41 160/11/41
f 145/12/41 146/13/41 160/11/41
f 146/13/41 147/14/41 160/11/41
f 147/14/41 148/15/41 160/11/41
f 148/15/41 149/16/41 160/11/41
f 149/16/41 150/17/41 160/11/41
f 150/17/41 151/18/41 160/11/41
f 151/18/41 152/19/41 160/11/41
f 152/19/41 153/20/41 160/11/41
f 153/20/41 154/21/41 160/11/41
f 154/21/41 155/22/41 160/11/41
f 155/22/41 156/23/41 160/11/41
f 156/23/41 157/24/41 160/11/41
f 157/24/41 159/25/41 160/11/41
f 159/25/41 158/26/41 160/11/41
g Cylinder_26
usemtl top_Cylinder_20
v 120.0 42.402454 -0.49039298
v 120.0 42.5 -0.5
v 120.0 42.5 0.0
v 120.0 42.59754 -0.49039298
v 120.0 42.69134 -0.46194
v 120.0 42.777786 -0.415735
v 120.0 42.853554 -0.353554
v 120.0 42.915733 -0.27778602
v 120.0 42.96194 -0.191342
v 120.0 42.99039 -0.09754598
v 120.0 43.0 0.0
v 120.0 42.99039 0.097545
v 120.0 42.96194 0.19134101
v 120.0 42.915733 0.277785
v 120.0 42.853554 0.353553
v 120.0 42.777786 0.415735
v 120.0 42.69134 0.46194
v 120.0 42.597546 0.490393
v 120.0 42.5 0.5
v 120.0 42.402454 0.490393
v 120.0 42.30866 0.46194
v 120.0 42.222214 0.415735
v 120.0 42.146446 0.353553
v 120.0 42.084263 0.277785
v 120.0 42.03806 0.191342
v 120.0 42.009605 0.097545
v 120.0 42.0 0.0
v 120.0 42.009605 -0.09754503
v 120.0 42.03806 -0.191342
v 120.0 42.084263 -0.277785
v 120.0 42.146446 -0.353553
v 120.0 42.222214 -0.415735
v 120.0 42.30866 -0.46194
f 161/9/8 162/10/8 163/11/8
f 162/10/8 164/12/8 163/11/8
f 164/12/8 165/13/8 163/11/8
f 165/13/8 166/14/8 163/11/8
f 166/14/8 167/15/8 163/11/8
f 167/15/8 168/16/8 163/11/8
f 168/16/8 169/17/8 163/11/8
f 169/17/8 170/18/8 163/11/8
f 170/18/8 171/19/8 163/11/8
f 171/19/8 172/20/8 163/11/8
f 172/20/8 173/21/8 163/11/8
f 173/21/8 174/22/8 163/11/8
f 174/22/8 175/23/8 163/11/8
f 175/23/8 176/24/8 163/11/8
f 176/24/8 177/25/8 163/11/8
f 177/25/8 178/26/8 163/11/8
f 178/26/8 179/27/8 163/11/8
f 179/27/8 180/28/8 163/11/8
f 180/28/8 181/29/8 163/11/8
f 181/29/8 182/30/8 163/11/8
f 182/30/8 183/31/8 163/11/8
f 183/31/8 184/32/8 163/11/8
f 184/32/8 185/33/8 163/11/8
f 185/33/8 186/34/8 163/11/8
f 186/34/8 187/35/8 163/11/8
f 187/35/8 188/36/8 163/11/8
f 188/36/8 189/37/8 163/11/8
f 189/37/8 190/38/8 163/11/8
f 190/38/8 191/39/8 163/11/8
f 191/39/8 192/40/8 163/11/8
f 192/40/8 193/41/8 163/11/8
f 193/41/8 161/9/8 163/11/8
g Cylinder_32_27
usemtl cylinder
v 100.0 42.402454 -0.49039298
v 100.0 42.30866 -0.46194
v 100.0 42.222214 -0.415735
v 100.0 42.146446 -0.353553
v 100.0 42.084267 -0.277785
v 100.0 42.03806 -0.191342
v 100.0 42.00961 -0.09754503
v 100.0 42.0 0.0
v 100.0 42.00961 0.097545
v 100.0 42.03806 0.191342
v 100.0 42.084267 0.277785
v 100.0 42.146446 0.353553
v 100.0 42.222214 0.415735
v 100.0 42.30866 0.46194
v 100.0 42.402454 0.490393
v 100.0 42.5 0.5
v 100.0 42.597546 0.490393
v 100.0 42.69134 0.46194
v 100.0 42.777786 0.415735
v 100.0 42.853554 0.353553
v 100.0 42.915737 0.277785
v 100.0 42.96194 0.19134101
v 100.0 42.990395 0.097545
v 100.0 43.0 0.0
v 100.0 42.990395 -0.09754598
v 100.0 42.96194 -0.191342
v 100.0 42.915733 -0.27778602
v 100.0 42.853554 -0.353554
v 100.0 42.777786 -0.415735
v 100.0 42.69134 -0.46194
v 100.0 42.5 -0.5
v 100.0 42.597546 -0.49039298
f 162/42/9 161/43/10 194/44/10
f 161/43/10 193/45/11 195/46/11
f 193/45/11 192/47/12 196/48/12
f 192/47/12 191/49/13 197/50/13
f 191/49/13 190/51/14 198/52/14
f 190/51/14 189/53/15 199/54/15
f 189/53/15 188/55/16 200/56/16
f 188/55/16 187/57/17 201/58/17
f 187/57/17 186/59/18 202/60/18
f 186/59/18 185/61/19 203/62/19
f 185/61/19 184/63/20 204/64/20
f 184/63/20 183/65/21 205/66/21
f 183/65/21 182/67/22 206/68/22
f 182/67/22 181/69/23 207/70/23
f 181/69/23 180/71/24 208/72/24
f 180/71/24 179/73/25 209/74/25
f 179/73/25 178/75/26 210/76/26
f 178/75/26 177/77/27 211/78/27
f 177/77/27 176/79/28 212/80/28
f 176/79/28 175/81/29 213/82/29
f 175/81/29 174/83/30 214/84/30
f 174/83/30 173/85/31 215/86/31
f 173/85/31 172/87/32 216/4/32
f 172/88/32 171/89/33 217/90/33
f 171/89/33 170/91/34 218/92/34
f 170/91/34 169/93/35 219/94/35
f 169/93/35 168/95/36 220/96/36
f 168/95/36 167/97/37 221/98/37
f 167/97/37 166/99/38 222/100/38
f 166/99/38 165/101/39 223/102/39
f 164/103/40 162/42/9 224/104/9
f 165/101/39 164/103/40 225/105/40
f 224/104/9 162/42/9 194/44/10
f 194/44/10 161/43/10 195/46/11
f 195/46/11 193/45/11 196/48/12
f 196/48/12 192/47/12 197/50/13
f 197/50/13 191/49/13 198/52/14
f 198/52/14 190/51/14 199/54/15
f 199/54/15 189/53/15 200/56/16
f 200/56/16 188/55/16 201/58/17
f 201/58/17 187/57/17 202/60/18
f 202/60/18 186/59/18 203/62/19
f 203/62/19 185/61/19 204/64/20
f 204/64/20 184/63/20 205/66/21
f 205/66/21 183/65/21 206/68/22
f 206/68/22 182/67/22 207/70/23
f 207/70/23 181/69/23 208/72/24
f 208/72/24 180/71/24 209/74/25
f 209/74/25 179/73/25 210/76/26
f 210/76/26 178/75/26 211/78/27
f 211/78/27 177/77/27 212/80/28
f 212/80/28 176/79/28 213/82/29
f 213/82/29 175/81/29 214/84/30
f 214/84/30 174/83/30 215/86/31
f 215/86/31 173/85/31 216/4/32
f 216/106/32 172/88/32 217/90/33
f 217/90/33 171/89/33 218/92/34
f 218/92/34 170/91/34 219/94/35
f 219/94/35 169/93/35 220/96/36
f 220/96/36 168/95/36 221/98/37
f 221/98/37 167/97/37 222/100/38
f 222/100/38 166/99/38 223/102/39
f 225/105/40 164/103/40 224/104/9
f 223/102/39 165/101/39 225/105/40
g Cylinder_96_28
usemtl bottom_Cylinder_96_22
v 100.0 42.5 0.0
f 224/26/41 194/27/41 226/11/41
f 194/27/41 195/28/41 226/11/41
f 195/28/41 196/29/41 226/11/41
f 196/29/41 197/30/41 226/11/41
f 197/30/41 198/31/41 226/11/41
f 198/31/41 199/32/41 226/11/41
f 199/32/41 200/33/41 226/11/41
f 200/33/41 201/34/41 226/11/41
f 201/34/41 202/35/41 226/11/41
f 202/35/41 203/36/41 226/11/41
f 203/36/41 204/37/41 226/11/41
f 204/37/41 205/38/41 226/11/41
f 205/38/41 206/39/41 226/11/41
f 206/39/41 207/40/41 226/11/41
f 207/40/41 208/41/41 226/11/41
f 208/41/41 209/9/41 226/11/41
f 209/9/41 210/10/41 226/11/41
f 210/10/41 211/12/41 226/11/41
f 211/12/41 212/13/41 226/11/41
f 212/13/41 213/14/41 226/11/41
f 213/14/41 214/15/41 226/11/41
f 214/15/41 215/16/41 226/11/41
f 215/16/41 216/17/41 226/11/41
f 216/17/41 217/18/41 226/11/41
f 217/18/41 218/19/41 226/11/41
f 218/19/41 219/20/41 226/11/41
f 219/20/41 220/21/41 226/11/41
f 220/21/41 221/22/41 226/11/41
f 221/22/41 222/23/41 226/11/41
f 222/23/41 223/24/41 226/11/41
f 223/24/41 225/25/41 226/11/41
f 225/25/41 224/26/41 226/11/41
